<svg preserveAspectRatio="none" width="100%" height="100%" overflow="visible" style="display: block;" viewBox="0 0 80 112.744" fill="none" xmlns="http://www.w3.org/2000/svg">
<path id="La burbuja " d="M12.0651 6.04351C13.5633 6.83659 15.0627 7.6308 16.5633 8.42615C16.7126 40.7696 16.8371 72.8108 16.9366 104.55C15.3175 105.379 13.6996 106.209 12.0829 107.038C9.67671 83.7639 7.2279 59.0444 4.73642 32.8797C4.89525 59.5057 4.99837 85.4227 5.04578 110.631C3.57128 111.36 2.09915 112.065 0.629389 112.744C0.577237 76.3535 0.36744 38.7721 0 0C1.70682 0.76808 3.41719 1.57706 5.13112 2.42695C7.61075 28.2553 10.0442 53.3236 12.4313 77.6317C12.3247 53.5917 12.2026 29.729 12.0651 6.04351ZM33.2758 72.6653C33.2498 58.5149 33.2284 44.3418 33.2118 30.146C33.2118 28.6257 33.1052 27.6066 32.8883 27.0953C32.7069 26.509 32.2767 26.0693 31.5904 25.7761C30.9954 25.5216 30.4015 25.2682 29.8089 25.016C29.8041 21.821 29.8006 18.6362 29.7982 15.4616C30.8816 16.0388 31.9649 16.6148 33.0483 17.1898C34.8191 18.1305 36.0992 19.736 36.8886 21.9993C37.7136 24.1638 38.1225 26.9419 38.1189 30.3539C38.1166 44.1862 38.1237 57.9798 38.1403 71.7348C36.5164 72.0415 34.895 72.3517 33.2758 72.6653ZM33.2972 83.6889C33.2853 78.2714 33.2747 72.8267 33.2652 67.3547C34.8867 67.1592 36.5093 66.9672 38.1332 66.7786C38.1427 72.4347 38.1521 78.0703 38.1616 83.6855C38.1687 87.0157 37.7634 89.7426 36.9491 91.8969C36.1668 93.9932 34.908 95.4827 33.1656 96.3519C31.9898 96.9382 30.8152 97.5257 29.6417 98.1142C29.6346 95.0033 29.6275 91.8775 29.6204 88.7371C30.3126 88.4621 31.0072 88.1883 31.7042 87.9156C32.3798 87.6497 32.8065 87.2339 32.9843 86.668C33.1941 86.092 33.3007 85.1 33.2972 83.6889ZM26.9002 27.7327C26.9381 43.1874 26.9772 58.632 27.0175 74.0663C25.396 74.4094 23.7746 74.756 22.1531 75.1059C22.0962 58.0059 22.0381 40.9173 21.9788 23.84C21.9646 19.7087 22.3522 16.8012 23.1381 15.1207C23.963 13.4096 25.2609 13.0517 27.0317 13.9925C28.1175 14.5697 29.202 15.1457 30.2854 15.7206C30.2877 18.8793 30.2913 22.0471 30.296 25.2239C29.701 24.9694 29.106 24.7149 28.511 24.4604C27.8638 24.1843 27.43 24.2695 27.2166 24.7228C26.9997 25.0876 26.8966 26.0897 26.9002 27.7327ZM26.9997 67.1979C27.0163 73.4652 27.0329 79.6894 27.0495 85.8704C27.0531 87.3941 27.1598 88.3792 27.3767 88.8291C27.59 89.279 28.0203 89.3711 28.6603 89.1188C29.2103 88.9007 29.7615 88.6814 30.3138 88.461C30.3209 91.5787 30.328 94.6806 30.3351 97.7665C29.3039 98.2847 28.2727 98.8028 27.2415 99.3209C25.4992 100.2 24.2155 99.8594 23.3905 98.2676C22.6047 96.5224 22.2064 93.6319 22.1958 89.5926C22.1744 82.4004 22.1531 75.1389 22.1317 67.808C23.7532 67.6012 25.3759 67.3978 26.9997 67.1979ZM54.8635 28.7007C56.5158 29.5711 58.1693 30.4437 59.824 31.3186C57.7995 48.998 55.7893 67.5501 53.7932 86.9748C51.5175 87.9542 49.2405 88.9336 46.9624 89.913C44.9237 68.2023 42.9087 45.3519 40.9174 21.3619C42.5792 22.2368 44.2386 23.1106 45.8956 23.9832C47.3701 43.5101 48.8612 62.2292 50.3689 80.1405C51.8529 62.5542 53.3511 45.4076 54.8635 28.7007ZM75.7792 64.154C75.7816 65.572 75.7827 66.9956 75.7827 68.425C72.1368 69.1294 68.4896 69.8816 64.8413 70.6815C64.839 68.8431 64.8378 67.0149 64.8378 65.197C68.4861 64.8152 72.1332 64.4676 75.7792 64.154ZM80 75.9138C78.3833 76.5205 76.7642 77.1545 75.1427 77.8158C73.4691 66.565 71.7978 54.8302 70.1289 42.6114C68.6141 54.8734 67.1029 67.9694 65.5952 81.8993C63.9784 82.5947 62.3605 83.2912 60.7414 83.9888C62.709 66.7548 64.6837 50.4058 66.6655 34.9419C68.9958 36.1781 71.3249 37.4087 73.6528 38.6335C75.7673 52.0294 77.8831 64.4562 80 75.9138Z" fill="var(--fill-0, white)"/>
</svg>
