<svg preserveAspectRatio="none" width="100%" height="100%" overflow="visible" style="display: block;" viewBox="0 0 512 408.135" fill="none" xmlns="http://www.w3.org/2000/svg">
<path id="NOVA" d="M0 408.135C0.0101285 273.198 0.018991 137.153 0.0265873 0C9.69425 2.88916 19.3657 5.96823 29.041 9.2372C52.4935 104.688 75.8106 195.204 98.9923 280.785C89.0511 262.404 79.0948 243.425 69.1233 223.846C73.7064 223.73 78.2883 223.615 82.8689 223.501C83.0968 157.671 83.326 92.4315 83.5564 27.7838C94.3737 31.4427 105.19 35.0978 116.004 38.7492C115.427 149.983 114.802 261.216 114.128 372.447C104.628 375.427 95.127 378.413 85.6264 381.403C62.5866 298.509 39.367 209.256 15.9676 113.646C26.0176 137.053 36.055 160.041 46.0797 182.609C41.4687 182.417 36.8589 182.236 32.2504 182.066C32.1719 255.159 32.0669 327.293 31.9352 398.468C21.2952 401.861 10.6501 405.083 0 408.135ZM188.801 355.173C175.879 359.37 164.693 356.703 155.236 346.779C145.759 336.326 138.478 319.208 133.396 295.317C128.292 270.807 125.842 240.84 126.062 205.851C126.062 205.704 126.063 205.552 126.066 205.395C126.275 170.421 129.116 140.533 134.597 116.171C140.089 92.4442 147.742 75.5384 157.568 65.3783C167.398 55.7537 178.887 53.4443 192.029 58.0288C205.171 62.6056 216.543 72.2568 226.137 86.6254C235.769 100.485 243.156 117.698 248.292 138.277C253.457 158.328 255.85 181.067 255.455 206.906C255.452 207.023 255.451 207.136 255.451 207.245C255.011 233.129 251.888 255.934 246.104 276.03C240.372 296.662 232.586 313.81 222.775 327.48C213.041 341.628 201.726 350.979 188.801 355.173ZM189.769 277.371C195.922 276.436 201.293 272.873 205.885 266.739C210.484 260.734 214.093 252.656 216.706 242.484C219.33 232.316 220.736 220.512 220.926 207.001C220.926 206.882 220.927 206.76 220.929 206.633C221.112 193.13 220.022 181.394 217.659 171.302C215.297 161.104 211.867 152.957 207.374 146.857C202.88 140.51 197.533 136.746 191.326 135.652C185.082 134.547 179.658 136.564 175.062 141.798C170.467 147.013 166.881 155.069 164.31 165.951C161.784 176.984 160.455 190.308 160.322 205.866C160.319 206.013 160.318 206.154 160.318 206.291C160.185 221.852 161.279 235.302 163.6 246.533C165.954 257.502 169.361 265.642 173.813 270.986C178.261 276.22 183.578 278.309 189.769 277.371ZM299.476 315.307C286.028 243.243 272.494 166.962 258.873 86.4658C271.704 90.2539 284.539 94.0293 297.379 97.792C305.89 149.855 314.374 199.886 322.831 247.885C323.001 247.862 323.17 247.841 323.34 247.821C333.263 201.5 343.094 156.905 352.833 114.033C365.678 117.801 378.527 121.574 391.377 125.352C375.987 179.739 360.419 238.561 344.674 301.816C329.608 306.315 314.542 310.812 299.476 315.307ZM375.485 292.597C391.205 235.394 406.76 182.67 422.15 134.426C433.512 137.793 444.875 141.167 456.239 144.548C456.16 156.046 456.084 167.262 456.011 178.196C452.111 177.624 448.213 177.053 444.316 176.483C433.674 208.562 422.935 243.601 412.1 281.598C399.895 285.269 387.69 288.936 375.485 292.597ZM401.978 254.616C405.33 242.37 408.673 230.42 412.005 218.764C432.956 217.564 453.908 216.367 474.861 215.171C478.011 222.998 481.164 230.717 484.319 238.329C456.873 243.758 429.426 249.187 401.978 254.616ZM475.401 262.406C465.173 235.317 454.979 206.7 444.818 176.555C444.904 165.031 444.992 153.254 445.083 141.224C452.541 143.445 459.999 145.668 467.459 147.894C482.206 186.863 497.053 221.489 512 251.771C499.803 255.149 487.603 258.694 475.401 262.406Z" fill="var(--fill-0, white)"/>
</svg>
