<svg preserveAspectRatio="none" width="100%" height="100%" overflow="visible" style="display: block;" viewBox="0 0 1464.8 1860" fill="none" xmlns="http://www.w3.org/2000/svg">
<path id="Vector 234255392" d="M990.32 148.537L1021.07 532.559L1328.65 486.316L1398.67 475.787L1352.38 529.372L1108.86 811.275L1308.5 1050.71L1331.74 1078.58L1297.98 1091.88L1048.41 1190.24L1153.34 1673.27L1174.22 1769.42L1108.27 1696.41L812.109 1368.55L762.636 1532.45L743.782 1594.91L714.181 1536.77L624.993 1361.59L424.476 1592.03L370.011 1654.62L378.631 1572.1L411.511 1257.3L194.735 1341.29L118.357 1370.88L163.364 1302.44L338.4 1036.29L105.665 912.318L58.994 887.458L107.037 865.367L347.91 754.606L188.929 305.333L168.535 247.703L224.341 272.66L517.066 403.569L572.953 86.0265L623.97 83.3575L727.77 446.031L942.64 135.707L984.456 75.3146L990.32 148.537Z" stroke="var(--stroke-0, #9933FF)" stroke-width="52.4256"/>
</svg>
